<mxfile host="app.diagrams.net" agent="Mozilla/5.0 (Windows NT 10.0; Win64; x64) AppleWebKit/537.36 (KHTML, like Gecko) Chrome/140.0.0.0 Safari/537.36 Edg/140.0.0.0" version="28.2.5">
  <diagram name="Page-1" id="eH4ee5bTZmWqaLfd1qn3">
    <mxGraphModel dx="2115" dy="1608" grid="0" gridSize="10" guides="1" tooltips="1" connect="1" arrows="1" fold="1" page="0" pageScale="1" pageWidth="850" pageHeight="1100" math="0" shadow="0">
      <root>
        <mxCell id="0" />
        <mxCell id="1" parent="0" />
        <mxCell id="pVXB0BpDlV4kyXfcXGYo-2" value="createPlayer" style="swimlane;fontStyle=0;childLayout=stackLayout;horizontal=1;startSize=30;horizontalStack=0;resizeParent=1;resizeParentMax=0;resizeLast=0;collapsible=1;marginBottom=0;whiteSpace=wrap;html=1;fontFamily=Architects Daughter;fontSource=https%3A%2F%2Ffonts.googleapis.com%2Fcss%3Ffamily%3DArchitects%2BDaughter;" vertex="1" parent="1">
          <mxGeometry x="291" y="-167" width="140" height="130" as="geometry">
            <mxRectangle x="-178" y="203" width="109" height="30" as="alternateBounds" />
          </mxGeometry>
        </mxCell>
        <mxCell id="pVXB0BpDlV4kyXfcXGYo-4" value="+ name" style="text;strokeColor=none;fillColor=none;align=left;verticalAlign=middle;spacingLeft=4;spacingRight=4;overflow=hidden;points=[[0,0.5],[1,0.5]];portConstraint=eastwest;rotatable=0;whiteSpace=wrap;html=1;fontFamily=Architects Daughter;fontSource=https%3A%2F%2Ffonts.googleapis.com%2Fcss%3Ffamily%3DArchitects%2BDaughter;" vertex="1" parent="pVXB0BpDlV4kyXfcXGYo-2">
          <mxGeometry y="30" width="140" height="30" as="geometry" />
        </mxCell>
        <mxCell id="pVXB0BpDlV4kyXfcXGYo-3" value="- symbol" style="text;strokeColor=none;fillColor=none;align=left;verticalAlign=middle;spacingLeft=4;spacingRight=4;overflow=hidden;points=[[0,0.5],[1,0.5]];portConstraint=eastwest;rotatable=0;whiteSpace=wrap;html=1;fontFamily=Architects Daughter;fontSource=https%3A%2F%2Ffonts.googleapis.com%2Fcss%3Ffamily%3DArchitects%2BDaughter;" vertex="1" parent="pVXB0BpDlV4kyXfcXGYo-2">
          <mxGeometry y="60" width="140" height="30" as="geometry" />
        </mxCell>
        <mxCell id="pVXB0BpDlV4kyXfcXGYo-6" value="" style="line;strokeWidth=1;rotatable=0;dashed=0;labelPosition=right;align=left;verticalAlign=middle;spacingTop=0;spacingLeft=6;points=[];portConstraint=eastwest;fontFamily=Architects Daughter;fontSource=https%3A%2F%2Ffonts.googleapis.com%2Fcss%3Ffamily%3DArchitects%2BDaughter;" vertex="1" parent="pVXB0BpDlV4kyXfcXGYo-2">
          <mxGeometry y="90" width="140" height="10" as="geometry" />
        </mxCell>
        <mxCell id="pVXB0BpDlV4kyXfcXGYo-5" value="+ getMove" style="text;strokeColor=none;fillColor=none;align=left;verticalAlign=middle;spacingLeft=4;spacingRight=4;overflow=hidden;points=[[0,0.5],[1,0.5]];portConstraint=eastwest;rotatable=0;whiteSpace=wrap;html=1;fontFamily=Architects Daughter;fontSource=https%3A%2F%2Ffonts.googleapis.com%2Fcss%3Ffamily%3DArchitects%2BDaughter;" vertex="1" parent="pVXB0BpDlV4kyXfcXGYo-2">
          <mxGeometry y="100" width="140" height="30" as="geometry" />
        </mxCell>
        <mxCell id="pVXB0BpDlV4kyXfcXGYo-8" value="createGameboard" style="swimlane;fontStyle=0;childLayout=stackLayout;horizontal=1;startSize=30;horizontalStack=0;resizeParent=1;resizeParentMax=0;resizeLast=0;collapsible=1;marginBottom=0;whiteSpace=wrap;html=1;fontFamily=Architects Daughter;fontSource=https%3A%2F%2Ffonts.googleapis.com%2Fcss%3Ffamily%3DArchitects%2BDaughter;" vertex="1" parent="1">
          <mxGeometry x="-247" y="-360" width="140" height="370" as="geometry">
            <mxRectangle x="-85" y="-10" width="136" height="30" as="alternateBounds" />
          </mxGeometry>
        </mxCell>
        <mxCell id="pVXB0BpDlV4kyXfcXGYo-9" value="- board" style="text;strokeColor=none;fillColor=none;align=left;verticalAlign=middle;spacingLeft=4;spacingRight=4;overflow=hidden;points=[[0,0.5],[1,0.5]];portConstraint=eastwest;rotatable=0;whiteSpace=wrap;html=1;fontFamily=Architects Daughter;fontSource=https%3A%2F%2Ffonts.googleapis.com%2Fcss%3Ffamily%3DArchitects%2BDaughter;" vertex="1" parent="pVXB0BpDlV4kyXfcXGYo-8">
          <mxGeometry y="30" width="140" height="30" as="geometry" />
        </mxCell>
        <mxCell id="pVXB0BpDlV4kyXfcXGYo-11" value="" style="line;strokeWidth=1;rotatable=0;dashed=0;labelPosition=right;align=left;verticalAlign=middle;spacingTop=0;spacingLeft=6;points=[];portConstraint=eastwest;fontFamily=Architects Daughter;fontSource=https%3A%2F%2Ffonts.googleapis.com%2Fcss%3Ffamily%3DArchitects%2BDaughter;" vertex="1" parent="pVXB0BpDlV4kyXfcXGYo-8">
          <mxGeometry y="60" width="140" height="10" as="geometry" />
        </mxCell>
        <mxCell id="pVXB0BpDlV4kyXfcXGYo-12" value="+ placeSymbol" style="text;strokeColor=none;fillColor=none;align=left;verticalAlign=middle;spacingLeft=4;spacingRight=4;overflow=hidden;points=[[0,0.5],[1,0.5]];portConstraint=eastwest;rotatable=0;whiteSpace=wrap;html=1;fontFamily=Architects Daughter;fontSource=https%3A%2F%2Ffonts.googleapis.com%2Fcss%3Ffamily%3DArchitects%2BDaughter;" vertex="1" parent="pVXB0BpDlV4kyXfcXGYo-8">
          <mxGeometry y="70" width="140" height="30" as="geometry" />
        </mxCell>
        <mxCell id="pVXB0BpDlV4kyXfcXGYo-14" value="+ getBoard" style="text;strokeColor=none;fillColor=none;spacingLeft=4;spacingRight=4;overflow=hidden;rotatable=0;points=[[0,0.5],[1,0.5]];portConstraint=eastwest;fontSize=12;whiteSpace=wrap;html=1;fontFamily=Architects Daughter;fontSource=https%3A%2F%2Ffonts.googleapis.com%2Fcss%3Ffamily%3DArchitects%2BDaughter;" vertex="1" parent="pVXB0BpDlV4kyXfcXGYo-8">
          <mxGeometry y="100" width="140" height="30" as="geometry" />
        </mxCell>
        <mxCell id="pVXB0BpDlV4kyXfcXGYo-15" value="+ checkStatus" style="text;strokeColor=none;fillColor=none;spacingLeft=4;spacingRight=4;overflow=hidden;rotatable=0;points=[[0,0.5],[1,0.5]];portConstraint=eastwest;fontSize=12;whiteSpace=wrap;html=1;fontFamily=Architects Daughter;fontSource=https%3A%2F%2Ffonts.googleapis.com%2Fcss%3Ffamily%3DArchitects%2BDaughter;" vertex="1" parent="pVXB0BpDlV4kyXfcXGYo-8">
          <mxGeometry y="130" width="140" height="30" as="geometry" />
        </mxCell>
        <mxCell id="pVXB0BpDlV4kyXfcXGYo-13" value="- isEmptyLocation" style="text;strokeColor=none;fillColor=none;spacingLeft=4;spacingRight=4;overflow=hidden;rotatable=0;points=[[0,0.5],[1,0.5]];portConstraint=eastwest;fontSize=12;whiteSpace=wrap;html=1;fontFamily=Architects Daughter;fontSource=https%3A%2F%2Ffonts.googleapis.com%2Fcss%3Ffamily%3DArchitects%2BDaughter;" vertex="1" parent="pVXB0BpDlV4kyXfcXGYo-8">
          <mxGeometry y="160" width="140" height="30" as="geometry" />
        </mxCell>
        <mxCell id="pVXB0BpDlV4kyXfcXGYo-16" value="- isBoardFull" style="text;strokeColor=none;fillColor=none;spacingLeft=4;spacingRight=4;overflow=hidden;rotatable=0;points=[[0,0.5],[1,0.5]];portConstraint=eastwest;fontSize=12;whiteSpace=wrap;html=1;fontFamily=Architects Daughter;fontSource=https%3A%2F%2Ffonts.googleapis.com%2Fcss%3Ffamily%3DArchitects%2BDaughter;" vertex="1" parent="pVXB0BpDlV4kyXfcXGYo-8">
          <mxGeometry y="190" width="140" height="30" as="geometry" />
        </mxCell>
        <mxCell id="pVXB0BpDlV4kyXfcXGYo-17" value="- checkRow" style="text;strokeColor=none;fillColor=none;spacingLeft=4;spacingRight=4;overflow=hidden;rotatable=0;points=[[0,0.5],[1,0.5]];portConstraint=eastwest;fontSize=12;whiteSpace=wrap;html=1;fontFamily=Architects Daughter;fontSource=https%3A%2F%2Ffonts.googleapis.com%2Fcss%3Ffamily%3DArchitects%2BDaughter;" vertex="1" parent="pVXB0BpDlV4kyXfcXGYo-8">
          <mxGeometry y="220" width="140" height="30" as="geometry" />
        </mxCell>
        <mxCell id="pVXB0BpDlV4kyXfcXGYo-18" value="- checkRows" style="text;strokeColor=none;fillColor=none;spacingLeft=4;spacingRight=4;overflow=hidden;rotatable=0;points=[[0,0.5],[1,0.5]];portConstraint=eastwest;fontSize=12;whiteSpace=wrap;html=1;fontFamily=Architects Daughter;fontSource=https%3A%2F%2Ffonts.googleapis.com%2Fcss%3Ffamily%3DArchitects%2BDaughter;" vertex="1" parent="pVXB0BpDlV4kyXfcXGYo-8">
          <mxGeometry y="250" width="140" height="30" as="geometry" />
        </mxCell>
        <mxCell id="pVXB0BpDlV4kyXfcXGYo-19" value="- checkCols" style="text;strokeColor=none;fillColor=none;spacingLeft=4;spacingRight=4;overflow=hidden;rotatable=0;points=[[0,0.5],[1,0.5]];portConstraint=eastwest;fontSize=12;whiteSpace=wrap;html=1;fontFamily=Architects Daughter;fontSource=https%3A%2F%2Ffonts.googleapis.com%2Fcss%3Ffamily%3DArchitects%2BDaughter;" vertex="1" parent="pVXB0BpDlV4kyXfcXGYo-8">
          <mxGeometry y="280" width="140" height="30" as="geometry" />
        </mxCell>
        <mxCell id="pVXB0BpDlV4kyXfcXGYo-20" value="- checkDiagonal1" style="text;strokeColor=none;fillColor=none;spacingLeft=4;spacingRight=4;overflow=hidden;rotatable=0;points=[[0,0.5],[1,0.5]];portConstraint=eastwest;fontSize=12;whiteSpace=wrap;html=1;fontFamily=Architects Daughter;fontSource=https%3A%2F%2Ffonts.googleapis.com%2Fcss%3Ffamily%3DArchitects%2BDaughter;" vertex="1" parent="pVXB0BpDlV4kyXfcXGYo-8">
          <mxGeometry y="310" width="140" height="30" as="geometry" />
        </mxCell>
        <mxCell id="pVXB0BpDlV4kyXfcXGYo-21" value="- checkDiagonal2" style="text;strokeColor=none;fillColor=none;spacingLeft=4;spacingRight=4;overflow=hidden;rotatable=0;points=[[0,0.5],[1,0.5]];portConstraint=eastwest;fontSize=12;whiteSpace=wrap;html=1;fontFamily=Architects Daughter;fontSource=https%3A%2F%2Ffonts.googleapis.com%2Fcss%3Ffamily%3DArchitects%2BDaughter;" vertex="1" parent="pVXB0BpDlV4kyXfcXGYo-8">
          <mxGeometry y="340" width="140" height="30" as="geometry" />
        </mxCell>
        <mxCell id="pVXB0BpDlV4kyXfcXGYo-22" value="createGameController" style="swimlane;fontStyle=0;childLayout=stackLayout;horizontal=1;startSize=30;horizontalStack=0;resizeParent=1;resizeParentMax=0;resizeLast=0;collapsible=1;marginBottom=0;whiteSpace=wrap;html=1;fontFamily=Architects Daughter;fontSource=https%3A%2F%2Ffonts.googleapis.com%2Fcss%3Ffamily%3DArchitects%2BDaughter;" vertex="1" parent="1">
          <mxGeometry x="37" y="-298" width="140" height="220" as="geometry" />
        </mxCell>
        <mxCell id="pVXB0BpDlV4kyXfcXGYo-23" value="+ board" style="text;strokeColor=none;fillColor=none;align=left;verticalAlign=middle;spacingLeft=4;spacingRight=4;overflow=hidden;points=[[0,0.5],[1,0.5]];portConstraint=eastwest;rotatable=0;whiteSpace=wrap;html=1;fontFamily=Architects Daughter;fontSource=https%3A%2F%2Ffonts.googleapis.com%2Fcss%3Ffamily%3DArchitects%2BDaughter;" vertex="1" parent="pVXB0BpDlV4kyXfcXGYo-22">
          <mxGeometry y="30" width="140" height="30" as="geometry" />
        </mxCell>
        <mxCell id="pVXB0BpDlV4kyXfcXGYo-35" value="+ Array&amp;lt;players&amp;gt;" style="text;strokeColor=none;fillColor=none;spacingLeft=4;spacingRight=4;overflow=hidden;rotatable=0;points=[[0,0.5],[1,0.5]];portConstraint=eastwest;fontSize=12;whiteSpace=wrap;html=1;fontFamily=Architects Daughter;fontSource=https%3A%2F%2Ffonts.googleapis.com%2Fcss%3Ffamily%3DArchitects%2BDaughter;" vertex="1" parent="pVXB0BpDlV4kyXfcXGYo-22">
          <mxGeometry y="60" width="140" height="30" as="geometry" />
        </mxCell>
        <mxCell id="pVXB0BpDlV4kyXfcXGYo-39" value="- activeI" style="text;strokeColor=none;fillColor=none;spacingLeft=4;spacingRight=4;overflow=hidden;rotatable=0;points=[[0,0.5],[1,0.5]];portConstraint=eastwest;fontSize=12;whiteSpace=wrap;html=1;fontFamily=Architects Daughter;fontSource=https%3A%2F%2Ffonts.googleapis.com%2Fcss%3Ffamily%3DArchitects%2BDaughter;" vertex="1" parent="pVXB0BpDlV4kyXfcXGYo-22">
          <mxGeometry y="90" width="140" height="30" as="geometry" />
        </mxCell>
        <mxCell id="pVXB0BpDlV4kyXfcXGYo-24" value="" style="line;strokeWidth=1;rotatable=0;dashed=0;labelPosition=right;align=left;verticalAlign=middle;spacingTop=0;spacingLeft=6;points=[];portConstraint=eastwest;fontFamily=Architects Daughter;fontSource=https%3A%2F%2Ffonts.googleapis.com%2Fcss%3Ffamily%3DArchitects%2BDaughter;" vertex="1" parent="pVXB0BpDlV4kyXfcXGYo-22">
          <mxGeometry y="120" width="140" height="10" as="geometry" />
        </mxCell>
        <mxCell id="pVXB0BpDlV4kyXfcXGYo-28" value="- evaluateMove" style="text;strokeColor=none;fillColor=none;spacingLeft=4;spacingRight=4;overflow=hidden;rotatable=0;points=[[0,0.5],[1,0.5]];portConstraint=eastwest;fontSize=12;whiteSpace=wrap;html=1;fontFamily=Architects Daughter;fontSource=https%3A%2F%2Ffonts.googleapis.com%2Fcss%3Ffamily%3DArchitects%2BDaughter;" vertex="1" parent="pVXB0BpDlV4kyXfcXGYo-22">
          <mxGeometry y="130" width="140" height="30" as="geometry" />
        </mxCell>
        <mxCell id="pVXB0BpDlV4kyXfcXGYo-40" value="+ runRound" style="text;strokeColor=none;fillColor=none;spacingLeft=4;spacingRight=4;overflow=hidden;rotatable=0;points=[[0,0.5],[1,0.5]];portConstraint=eastwest;fontSize=12;whiteSpace=wrap;html=1;fontFamily=Architects Daughter;fontSource=https%3A%2F%2Ffonts.googleapis.com%2Fcss%3Ffamily%3DArchitects%2BDaughter;" vertex="1" parent="pVXB0BpDlV4kyXfcXGYo-22">
          <mxGeometry y="160" width="140" height="30" as="geometry" />
        </mxCell>
        <mxCell id="pVXB0BpDlV4kyXfcXGYo-66" value="+ reset" style="text;strokeColor=none;fillColor=none;spacingLeft=4;spacingRight=4;overflow=hidden;rotatable=0;points=[[0,0.5],[1,0.5]];portConstraint=eastwest;fontSize=12;whiteSpace=wrap;html=1;fontFamily=Architects Daughter;fontSource=https%3A%2F%2Ffonts.googleapis.com%2Fcss%3Ffamily%3DArchitects%2BDaughter;" vertex="1" parent="pVXB0BpDlV4kyXfcXGYo-22">
          <mxGeometry y="190" width="140" height="30" as="geometry" />
        </mxCell>
        <mxCell id="pVXB0BpDlV4kyXfcXGYo-37" style="edgeStyle=none;curved=1;rounded=0;orthogonalLoop=1;jettySize=auto;html=1;fontFamily=Architects Daughter;fontSource=https%3A%2F%2Ffonts.googleapis.com%2Fcss%3Ffamily%3DArchitects%2BDaughter;fontSize=16;startSize=14;endArrow=open;endSize=14;sourcePerimeterSpacing=8;targetPerimeterSpacing=8;" edge="1" parent="1" source="pVXB0BpDlV4kyXfcXGYo-23" target="pVXB0BpDlV4kyXfcXGYo-8">
          <mxGeometry relative="1" as="geometry" />
        </mxCell>
        <mxCell id="pVXB0BpDlV4kyXfcXGYo-38" style="edgeStyle=none;curved=1;rounded=0;orthogonalLoop=1;jettySize=auto;html=1;fontFamily=Architects Daughter;fontSource=https%3A%2F%2Ffonts.googleapis.com%2Fcss%3Ffamily%3DArchitects%2BDaughter;fontSize=16;startSize=14;endArrow=open;endSize=14;sourcePerimeterSpacing=8;targetPerimeterSpacing=8;" edge="1" parent="1" source="pVXB0BpDlV4kyXfcXGYo-35" target="pVXB0BpDlV4kyXfcXGYo-2">
          <mxGeometry relative="1" as="geometry" />
        </mxCell>
        <mxCell id="pVXB0BpDlV4kyXfcXGYo-41" value="ticTacToe" style="swimlane;fontStyle=0;childLayout=stackLayout;horizontal=1;startSize=30;horizontalStack=0;resizeParent=1;resizeParentMax=0;resizeLast=0;collapsible=1;marginBottom=0;whiteSpace=wrap;html=1;fontFamily=Architects Daughter;fontSource=https%3A%2F%2Ffonts.googleapis.com%2Fcss%3Ffamily%3DArchitects%2BDaughter;" vertex="1" parent="1">
          <mxGeometry x="137" y="-435" width="162" height="70" as="geometry">
            <mxRectangle x="-178" y="203" width="109" height="30" as="alternateBounds" />
          </mxGeometry>
        </mxCell>
        <mxCell id="pVXB0BpDlV4kyXfcXGYo-44" value="" style="line;strokeWidth=1;rotatable=0;dashed=0;labelPosition=right;align=left;verticalAlign=middle;spacingTop=0;spacingLeft=6;points=[];portConstraint=eastwest;fontFamily=Architects Daughter;fontSource=https%3A%2F%2Ffonts.googleapis.com%2Fcss%3Ffamily%3DArchitects%2BDaughter;" vertex="1" parent="pVXB0BpDlV4kyXfcXGYo-41">
          <mxGeometry y="30" width="162" height="10" as="geometry" />
        </mxCell>
        <mxCell id="pVXB0BpDlV4kyXfcXGYo-45" value="+ createGameController" style="text;strokeColor=none;fillColor=none;align=left;verticalAlign=middle;spacingLeft=4;spacingRight=4;overflow=hidden;points=[[0,0.5],[1,0.5]];portConstraint=eastwest;rotatable=0;whiteSpace=wrap;html=1;fontFamily=Architects Daughter;fontSource=https%3A%2F%2Ffonts.googleapis.com%2Fcss%3Ffamily%3DArchitects%2BDaughter;" vertex="1" parent="pVXB0BpDlV4kyXfcXGYo-41">
          <mxGeometry y="40" width="162" height="30" as="geometry" />
        </mxCell>
        <mxCell id="pVXB0BpDlV4kyXfcXGYo-46" style="edgeStyle=none;curved=1;rounded=0;orthogonalLoop=1;jettySize=auto;html=1;fontFamily=Architects Daughter;fontSource=https%3A%2F%2Ffonts.googleapis.com%2Fcss%3Ffamily%3DArchitects%2BDaughter;fontSize=16;startSize=14;endArrow=open;endSize=14;sourcePerimeterSpacing=8;targetPerimeterSpacing=8;" edge="1" parent="1" source="pVXB0BpDlV4kyXfcXGYo-45" target="pVXB0BpDlV4kyXfcXGYo-22">
          <mxGeometry relative="1" as="geometry" />
        </mxCell>
        <mxCell id="pVXB0BpDlV4kyXfcXGYo-48" value="" style="shape=stencil(lVnJUhwxDP2auapseT8T8h9UAWEqBCgg299HysSdttz9urgNjZ6tffMpXL093Lzcndi9vb8+f737eb59fziFTyfm89PD3ev5XX6dwvUpXN0/v959eX3+/nR7+fvlRin117fnH3rCrwsuZ0peUex+X774SjH//fL5Ang8P60BiXKzgH9ftgFMMVpAcPuAlKmYGwqlCACOXB4BmRq4ITI1toAKZAiZvJ9YAgBuVOsIaOQYACKFkSX25Oo+QM6LZQRE8gUAMoVRrSxaAjJ4pjyqNThouGq1GiJxAnaj5Eb6ShWcz1RGncZIDtCLAkfHiw16qiMe6ZP4OtCo6//t9NlTCYh/P/KfCxXkppRH+hJ6KO3on0cDl9otuGfgMgpQAwVwgQSuGy1cS3eqbYkD1VGlzfXA2A40Rz6NADkC+JBEZhsjs+V+xLZSA7VR6FaooezirVu0Rh6EchKtT4AE/EhysJsAKHDED3y2MlTgeaVNdkgUgB1qomLs4KkCocWuJjjVNTwAxB4rC8BD1xARTaUqCYaPKtHEZ4MpVQBGaKldUIZm7SAZA5WFtlSNVUry6IZE3uSwQA74UmNyowyhUAQs1dbPWwCeArhBXMNUW0nkDGQQ5zN5XmqXR94qidIAAjGwdJa8aJwP5oAUbYcRuyG3c4Z0JKaFgWaOzlrNUQLnh0QtG/oIFKT0bOlBcAp9bYYeRb/SW34C5qdaeRm40CY9sK/SJ0OPHEjpi6FHQaP6dJb+QP+Wf9SIKH39CH22ddbB5lHprX4c8rdsY97Biqb01n888p/c8+zKvriIT/yED8qLUpbSe0MfQcZSe1l+juIxWHocj5O/xQP/n/SD9LkRL4zGm614PMgnlh7l26184g74sf7mQIu2lQ/dgX0nfg7i9yP0mv8tPcpXcZ544Sgn9cvYN/TOZa8+ppGf0gvaXgFmM+4yVVzi8xgAMioU3ETwaDEpwWgClzaFzTDqe5ew1wjxyJI0Qh71ZqnPPktTwLCp1p57lCFWOElIuxjHsNd2Edzg3eJn644UZHa9YvSkjEcJEaJMXXVDN0Qbm5Vh+yeTgUl2MhlkPHvU0XJqS5COdLoZWRJbokWCzk8GUKGW8lRwRNFIBp0BTUA4nDN0zGR7RToYZKMVAvmGVEFTRWRURnNpcLbsi/EZ3KBpyMylHhYeX2ziFt8oaOvFdrauoTvwzk7Ej3YotfdiOzuXOO1c0JDpqZmRscApdmkM1jsjSO/mlAF3WDYnNTj+iT7H88WtCoi11BuP1c4OrYurrWwhQP2IgdN4AbfuI3trTTPlc6YMPEKGT7sHDbBWiU/YGxxlEJm6/B1lkGqIjKbrZTPwFrzE2lpgRzTxOtuRKwDYLeVe8FcsoZ5N1/zJAtDmTh8SJi0xqIZ54Xh1A4plBUwPCQeAFCYAEjrbxkpXpMD5FFAnAK48JkAVgFnKbAHIlzYBcNuyCUBPRktArgBovlMtTW9MaMDLSyFbAdCEp4DpUQrt1j/+TnYMkB//n+Xuz4+Pl1e99f/tM558ujwBhus/);lineShape=1;strokeColor=light-dark(transparent,#969696);fontFamily=Architects Daughter;fontSource=https%3A%2F%2Ffonts.googleapis.com%2Fcss%3Ffamily%3DArchitects%2BDaughter;" vertex="1" parent="1">
          <mxGeometry x="92.50679539474424" y="-479.99738183960875" width="250.98439666211618" height="145.8907707994753" as="geometry" />
        </mxCell>
        <mxCell id="pVXB0BpDlV4kyXfcXGYo-49" value="Module: exposed" style="text;html=1;align=center;verticalAlign=middle;resizable=0;points=[];autosize=1;strokeColor=none;fillColor=none;fontSize=20;fontFamily=Architects Daughter;fontSource=https%3A%2F%2Ffonts.googleapis.com%2Fcss%3Ffamily%3DArchitects%2BDaughter;" vertex="1" parent="1">
          <mxGeometry x="14" y="-488" width="165" height="36" as="geometry" />
        </mxCell>
        <mxCell id="pVXB0BpDlV4kyXfcXGYo-60" style="edgeStyle=none;curved=1;rounded=0;orthogonalLoop=1;jettySize=auto;html=1;fontFamily=Architects Daughter;fontSource=https%3A%2F%2Ffonts.googleapis.com%2Fcss%3Ffamily%3DArchitects%2BDaughter;fontSize=16;startSize=14;endArrow=open;endSize=14;sourcePerimeterSpacing=8;targetPerimeterSpacing=8;" edge="1" parent="1" source="pVXB0BpDlV4kyXfcXGYo-50" target="pVXB0BpDlV4kyXfcXGYo-41">
          <mxGeometry relative="1" as="geometry" />
        </mxCell>
        <mxCell id="pVXB0BpDlV4kyXfcXGYo-50" value="tictactoe.js" style="shape=module;align=left;spacingLeft=20;align=center;verticalAlign=top;whiteSpace=wrap;html=1;fontFamily=Architects Daughter;fontSource=https%3A%2F%2Ffonts.googleapis.com%2Fcss%3Ffamily%3DArchitects%2BDaughter;" vertex="1" parent="1">
          <mxGeometry x="323" y="-292" width="124" height="50" as="geometry" />
        </mxCell>
        <mxCell id="pVXB0BpDlV4kyXfcXGYo-51" value="interactivity.js" style="shape=module;align=left;spacingLeft=20;align=center;verticalAlign=top;whiteSpace=wrap;html=1;fontFamily=Architects Daughter;fontSource=https%3A%2F%2Ffonts.googleapis.com%2Fcss%3Ffamily%3DArchitects%2BDaughter;" vertex="1" parent="1">
          <mxGeometry x="616" y="-392" width="119" height="50" as="geometry" />
        </mxCell>
        <mxCell id="pVXB0BpDlV4kyXfcXGYo-53" style="edgeStyle=none;curved=1;rounded=0;orthogonalLoop=1;jettySize=auto;html=1;fontFamily=Architects Daughter;fontSource=https%3A%2F%2Ffonts.googleapis.com%2Fcss%3Ffamily%3DArchitects%2BDaughter;fontSize=16;startSize=14;endArrow=open;endSize=14;sourcePerimeterSpacing=8;targetPerimeterSpacing=8;" edge="1" parent="1" source="pVXB0BpDlV4kyXfcXGYo-52" target="pVXB0BpDlV4kyXfcXGYo-50">
          <mxGeometry relative="1" as="geometry" />
        </mxCell>
        <mxCell id="pVXB0BpDlV4kyXfcXGYo-52" value="index.js" style="shape=module;align=left;spacingLeft=20;align=center;verticalAlign=top;whiteSpace=wrap;html=1;fontFamily=Architects Daughter;fontSource=https%3A%2F%2Ffonts.googleapis.com%2Fcss%3Ffamily%3DArchitects%2BDaughter;" vertex="1" parent="1">
          <mxGeometry x="455" y="-415" width="100" height="50" as="geometry" />
        </mxCell>
        <mxCell id="pVXB0BpDlV4kyXfcXGYo-56" style="edgeStyle=none;curved=1;rounded=0;orthogonalLoop=1;jettySize=auto;html=1;fontFamily=Architects Daughter;fontSource=https%3A%2F%2Ffonts.googleapis.com%2Fcss%3Ffamily%3DArchitects%2BDaughter;fontSize=16;startSize=14;endArrow=open;endSize=14;sourcePerimeterSpacing=8;targetPerimeterSpacing=8;" edge="1" parent="1" source="pVXB0BpDlV4kyXfcXGYo-55" target="pVXB0BpDlV4kyXfcXGYo-52">
          <mxGeometry relative="1" as="geometry" />
        </mxCell>
        <mxCell id="pVXB0BpDlV4kyXfcXGYo-62" style="edgeStyle=none;curved=1;rounded=0;orthogonalLoop=1;jettySize=auto;html=1;fontFamily=Architects Daughter;fontSource=https%3A%2F%2Ffonts.googleapis.com%2Fcss%3Ffamily%3DArchitects%2BDaughter;fontSize=16;startSize=14;endArrow=open;endSize=14;sourcePerimeterSpacing=8;targetPerimeterSpacing=8;" edge="1" parent="1" source="pVXB0BpDlV4kyXfcXGYo-55" target="pVXB0BpDlV4kyXfcXGYo-61">
          <mxGeometry relative="1" as="geometry" />
        </mxCell>
        <mxCell id="pVXB0BpDlV4kyXfcXGYo-55" value="index.html" style="sketch=0;pointerEvents=1;shadow=0;dashed=0;html=1;strokeColor=none;fillColor=#434445;aspect=fixed;labelPosition=center;verticalLabelPosition=bottom;verticalAlign=top;align=center;outlineConnect=0;shape=mxgraph.vvd.web_browser;fontFamily=Architects Daughter;fontSource=https%3A%2F%2Ffonts.googleapis.com%2Fcss%3Ffamily%3DArchitects%2BDaughter;" vertex="1" parent="1">
          <mxGeometry x="596" y="-540" width="84.51" height="60" as="geometry" />
        </mxCell>
        <mxCell id="pVXB0BpDlV4kyXfcXGYo-59" value="" style="shape=stencil(rVpdbxw3DPw19yqI+tZzmv6PAHHqQ107cJy2+fehepBuNdqdjYG+2XfkrSQOyeFoL/7Dt8dPXx8uzn57e3358+Gf6+e3x4v/7eLc9fnx4fX6pn9d/MeL//Dl5fXhj9eX78+fb/9//dQs219/vfzdfuHfm1+oprjm5eyP2yfZ5PTfB7/f7J+uz7O982BfLLHXrwXsayH20aTZvhjP7J2pGeyrO7b3tW+v2+sH5Pd9Mi5O9iLGBuLgTCyzg+tb2nVoCwaHYAIJgdMjsrNDMjETB2/8HDMpRtgTrMkzKKSaGo8dJGMUnJhKYCERYeSCsWRJshyrSyawJ1hj6+xQTCGRVqCGyd6Lif7YPiKwfTCeACN02Az7bDzZgG54tg+WZoKYMK8neBNJJliTZmCHRDPfGjdjIlqaCBYjHAcMj9YDv59MIr8vxs/rj7WD8OA8w4yH5I2rJJFNnQtFSj3vjvAwxytpaSU5U4yd15+9sSReCug4LygnIywDvAnwhNqfue+QMARFaMpozGSuRCV01B5VojKDomRjCShaN5r3UGqP+37UpLejUd+lH8O+Q+yVbTh4+oSwALtGGrigZzIjr2rpIkgN2hHAIfeCvA+9JdK1mEQCF/OyaT1WkgxJsyegA6sWmizVoUMhe8iCTUodIoF3jtgRdNP0CdUkvxwry1CPJUYD58imi1bQuQ1WbeVkSQrmApF29An6NfR+/YlMEkgXUIFPpf7MfYfUf284eAo+PXWBqqEZQuCtcbXzKWkhiwSt6gB1KTuTCaWqg9ONWszzQR2wOWjSsicUpM1JN00qX4MatENtGCzSaemfQqtGg9oMDeXelkVaoQaMwXX8HqEV9uALLfcKNaC2ypECiYO2D2iK3tKmqw3KzptWWlhJPuTceelw8HQPOSCWtOsFAg0tZECslB0zLCk2oT/ISNp9h4iF7M6Oj6q3hydYSh2USglObay0xqWJRpMJ9LRhybyD0IvIvr3FHStSGdcu2BA1KGQ9Sn3THGTb2d/RlCoV7BnJCAFrpJ4/m2oDDi9qzxjDGJ429ux8ljyz9PzDMrxYWlr2fp9Nd80+oz3J4r3zsSRj9s7fMtUi9Pn41+3fuR63rIefv1vOk+PNLevn+FnsWX3YW4/weEEzs1SAaPYW7fn6BfFzkl+yrOfE/p3rWfAsPF5rPp7gH/PxJF5r/r6znrBZv9lj/TzBM/SX8/xd8H+Sj8t6/k/72Bnu3d4x/CQkEZarpgVn/RMtyuKY7DqnOOq/kO+eaicxYb2NneQc8QeoD5ny77SIXVzLUQaUF5GVNWDlWHl+gASq+yqLA4KvLI5NyMoTgQI1TDCHgjmjQQgkyMp1ZZFAC3MIfSTZsGk2UpeMZbRpmmQPOhHUZSJg2rXOHKhSKpMjS9KpBu4DAleMmrYyb7rNTaQW6WRWwSFSstvmV1D6hjZ6OI7Oe2jTJdWuLY415wMsCGttRGbHVDs4N0N4YpsoqM/omM/03JoQG01IYPNoxCLT5kc+wMJdTuGSax2sciO3sEuEu1ayEXTYpFVWJS7RpM61w38jStEBNqIYUgs9pbwI5U1PYVpfQslog8dDddDhIyrhC01/FHRgV1hN4bS4ayafhLLoj5neSIUh+Gwix+4fwhixNjowI5E+dnBulGYmDHjBqbQKv0rMi4DPNVTtOAlSLlNie78H3Cj+rDBJ6v1gODhK9cQjtdIUoUsa12KbSuaYcNyBM+x9Z6P72OswGLW40gz1WJXaxRG7bcUNJ08vEgVnl8Sz02LqRL6eQcWHPV/P0qsiJ/+2F8TR0RMVmAVnweCpEOqwUbWLU5Zmy8Vvpu18KcA+UOk399Me9kJbQsXK5QqVZWWpvsoLmQAvcYd5MkQr9QV2oUFhtz8aY3wJovbr8qNCBAKKFFomNAphzppWaUjUXMG01wmA3b9716XqX5wxfELRSEtTIXHwFatvpeW9veuC78YwjqdTKkyRpZ/yvn3G66tMCVt7FwhVYibWt3eNLNhH/q4RktpT+4T2TOWo/XZ7Y8+m+Irnf7pfyORMKXZYpqnMGciePd/vas/ju6yfXbs1e4wvxWft6bGxZypZRQJ1+q7ae99tO7HXP+4v0n25Pj3d3sPbfo8v3ulHt5f2/Mef);lineShape=1;strokeColor=light-dark(transparent,#969696);fontFamily=Architects Daughter;fontSource=https%3A%2F%2Ffonts.googleapis.com%2Fcss%3Ffamily%3DArchitects%2BDaughter;rotation=120;" vertex="1" parent="1">
          <mxGeometry x="476.9983632945185" y="-608.9967206646585" width="312.45735691881146" height="377.1957751924787" as="geometry" />
        </mxCell>
        <mxCell id="pVXB0BpDlV4kyXfcXGYo-61" value="style.css" style="whiteSpace=wrap;html=1;shape=mxgraph.basic.document;fontFamily=Architects Daughter;fontSource=https%3A%2F%2Ffonts.googleapis.com%2Fcss%3Ffamily%3DArchitects%2BDaughter;" vertex="1" parent="1">
          <mxGeometry x="424" y="-628" width="66" height="79" as="geometry" />
        </mxCell>
        <mxCell id="pVXB0BpDlV4kyXfcXGYo-64" style="edgeStyle=none;curved=1;rounded=0;orthogonalLoop=1;jettySize=auto;html=1;fontFamily=Architects Daughter;fontSource=https%3A%2F%2Ffonts.googleapis.com%2Fcss%3Ffamily%3DArchitects%2BDaughter;fontSize=16;startSize=14;endArrow=open;endSize=14;sourcePerimeterSpacing=8;targetPerimeterSpacing=8;" edge="1" parent="1" source="pVXB0BpDlV4kyXfcXGYo-63" target="pVXB0BpDlV4kyXfcXGYo-50">
          <mxGeometry relative="1" as="geometry" />
        </mxCell>
        <mxCell id="pVXB0BpDlV4kyXfcXGYo-63" value="errors.js" style="shape=module;align=left;spacingLeft=20;align=center;verticalAlign=top;whiteSpace=wrap;html=1;fontFamily=Architects Daughter;fontSource=https%3A%2F%2Ffonts.googleapis.com%2Fcss%3Ffamily%3DArchitects%2BDaughter;" vertex="1" parent="1">
          <mxGeometry x="539" y="-234" width="119" height="50" as="geometry" />
        </mxCell>
        <mxCell id="pVXB0BpDlV4kyXfcXGYo-65" value="&lt;b&gt;&lt;font style=&quot;font-size: 40px;&quot;&gt;??&lt;/font&gt;&lt;/b&gt;" style="text;html=1;align=center;verticalAlign=middle;resizable=0;points=[];autosize=1;strokeColor=none;fillColor=none;fontSize=20;fontFamily=Architects Daughter;fontSource=https%3A%2F%2Ffonts.googleapis.com%2Fcss%3Ffamily%3DArchitects%2BDaughter;fontColor=light-dark(#000000,#A41E1E);" vertex="1" parent="1">
          <mxGeometry x="677" y="-450.4" width="58" height="60" as="geometry" />
        </mxCell>
      </root>
    </mxGraphModel>
  </diagram>
</mxfile>
